<svg version="1" xmlns="http://www.w3.org/2000/svg" width="520" height="520" viewBox="0 0 390.000000 390.000000"><path d="M23 3.1c0 1.6.5 2.9 1.1 2.9.8 0 .8.4 0 1.4-.8 1-.9 1.6-.2 2.1.6.3 1 1.6.9 2.8 0 1.2.2 4.7.5 7.7.4 3 .9 8.6 1.2 12.5.3 3.8.8 9 1 11.5.3 2.5.7 7.1 1 10.2.3 3.2.7 8.4 1 11.5.3 3.2.7 7.8 1 10.3.2 2.5.7 7.6 1 11.5.3 3.8.8 9.2 1.1 12 .2 2.7.6 7.5.9 10.5.2 3 .6 7.5.9 10 .4 2.5.8 7.6 1.1 11.5.2 3.8.6 8.8.9 11 .2 2.2.7 8 1.1 12.8.3 4.8.8 9.8 1.1 11 .2 1.2.6 5.8.9 10.2.3 4.4.7 9.6.9 11.5.3 1.9.7 7.3 1.1 12 .3 4.7.8 9.8 1 11.5.3 1.6.7 6.1 1 10 .3 3.8.8 9 1 11.5.2 2.5.7 7.6 1 11.5.3 3.8.7 9 1 11.5.2 2.5.7 7.4 1 11 .3 3.6.7 8.5 1 11 .2 2.5.6 7.2.9 10.5.3 3.3.8 8.9 1.2 12.5.3 3.6.7 9 .9 12 .2 3 .7 8 1 11 .7 6.2 1.4 14.5 1.9 20.8.2 2.4.5 4.4.7 4.6.4.4 27.7 8.3 31 9.1 2 .4 15.3 4.2 19.4 5.4 1.7.5 5 1.5 7.5 2.2 6.2 1.7 5.9 1.6 12 3.4 3 .9 7.1 2 9 2.5 1.9.5 6 1.6 9 2.5 3 .9 6.2 1.8 7 2 .8.2 8.9 2.5 17.9 5 9 2.6 17.3 4.8 18.5 5.1 1.1.2 3.1.9 4.3 1.5 2.5 1.3 2.8 1.3 20.3-3.6 5.2-1.4 10.9-3 12.5-3.4 1.7-.5 7.3-2.1 12.5-3.6s10-2.8 10.5-2.9c.6-.2 3-.9 5.5-1.6 2.5-.7 5-1.4 5.5-1.6 2.9-.6 10.3-2.6 12.5-3.4 1.4-.5 10.2-2.9 19.5-5.5 9.4-2.6 18.6-5.1 20.5-5.7 1.9-.6 4-1.2 4.5-1.3 1.6-.4 2.3-.6 5.7-1.6 1.8-.6 4-1.2 4.8-1.4 10.1-2.8 10.5-3 10.6-5.5.1-1.4.5-5.3.8-8.8.3-3.4.8-9 1.1-12.5.8-8.2 1.4-16.1 2-22.2.3-2.8.7-7.9 1-11.5.3-3.6.7-8.1 1-10 .2-1.9.7-7.3 1.1-12 .4-4.7.8-9.9 1-11.5.2-1.7.6-6.6.9-11 .7-9.2 1.1-14 1.9-21 .4-2.8.8-7.9 1.1-11.5.2-3.6.6-8.8.9-11.5.3-2.8.8-8.4 1.1-12.5.3-4.1.8-9.1 1-11 .2-1.9.7-6.9 1-11 .3-4.1.7-9.1.9-11 .5-3.7 1.4-13.6 2.1-23 .5-6 1.3-15 2-22 .3-2.5.8-7.9 1.1-12 .3-4.1.7-9.3 1-11.5.2-2.2.6-7.2.9-11 .3-3.9.8-8.6 1-10.5.2-1.9.6-7.1 1-11.5.3-4.4.8-9.1 1-10.5.2-1.4.7-6.3 1-11 .3-4.7.7-9.9.9-11.5.3-1.7.7-6.6 1.1-11 .3-4.4.7-8.9.8-10 .2-2-.5-2-171.5-2.2L23 .1v3z"/></svg>