<svg height="48" viewBox="0 0 48 48" width="48" xmlns="http://www.w3.org/2000/svg"><path d="M35 34H11c-1.654 0-3-1.346-3-3V7c0-3.86 3.14-7 7-7h16c3.86 0 7 3.14 7 7v24c0 1.654-1.346 3-3 3zM15 2c-2.757 0-5 2.243-5 5v24c0 .551.449 1 1 1h24c.551 0 1-.449 1-1V7c0-2.757-2.243-5-5-5H15z"/><path d="M31 22H15c-1.654 0-3-1.346-3-3V7c0-1.654 1.346-3 3-3h16c1.654 0 3 1.346 3 3v12c0 1.654-1.346 3-3 3zM15 6c-.551 0-1 .449-1 1v12c0 .551.449 1 1 1h16c.551 0 1-.449 1-1V7c0-.551-.449-1-1-1H15zm16 20h-6a1 1 0 0 1 0-2h6a1 1 0 0 1 0 2zm16 22H1a1 1 0 0 1-1-1v-4c0-.265.105-.52.293-.707l6-6A.997.997 0 0 1 7 36h34c.265 0 .52.105.707.293l6 6A.997.997 0 0 1 48 43v4a1 1 0 0 1-1 1zM2 46h44v-2.586L40.586 38H7.414L2 43.414V46z"/><path d="M47 44H1a1 1 0 0 1 0-2h46a1 1 0 0 1 0 2zm-4-6h-2v-2h2c1.654 0 3-1.346 3-3s-1.346-3-3-3h-6v-2h6c2.757 0 5 2.243 5 5s-2.243 5-5 5zm-31 1a1 1 0 1 0 0 2 1 1 0 0 0 0-2zm6 0a1 1 0 1 0 0 2 1 1 0 0 0 0-2zm6 0a1 1 0 1 0 0 2 1 1 0 0 0 0-2zm6 0a1 1 0 1 0 0 2 1 1 0 0 0 0-2zm6 0a1 1 0 1 0 0 2 1 1 0 0 0 0-2z"/></svg>